<svg id="Layer_1" data-name="Layer 1" xmlns="http://www.w3.org/2000/svg" viewBox="0 0 1142.93 204.51"><defs><style>.cls-1{fill:#1b75bc;}.cls-2{fill:#272d4e;}</style></defs><title>logo</title><path class="cls-1" d="M61,186.2l1.58.52h.1C62.12,186.52,61.55,186.36,61,186.2Z" transform="translate(-0.57 -0.78)"/><path class="cls-1" d="M64.68,195.18c-5.16-1.3-10.44-2.67-15.85-4.07C50.59,198.64,57.09,200.24,64.68,195.18Z" transform="translate(-0.57 -0.78)"/><path class="cls-1" d="M50.17,105.46a24.13,24.13,0,0,0,11.43,2.38c-.08-1.49-.16-2.87-.21-4.25,0-1-.54-1.41-1.47-1.74A28.76,28.76,0,0,1,54,99.3c-2.53-1.6-2.94-4.34-1.48-7a8.83,8.83,0,0,1,6.19-4.56c3.43-.64,6.9-1.08,10.35-1.56,4.66-.65,8.88-2.23,12.23-5.69,4.65-4.8,5-11.7.91-16.24S72,59,66.51,57.55c-.58-6.75,1.28-13.74.65-20.49a30.9,30.9,0,0,0-7.32,0c.08,9.78.38,19.54.62,29.31.1,3.56-.63,9.74,1.32,12.94,1.68,2.75,2.86-.74,3.38-2.56,1.51-5.24,1.29-11,1.2-16.35.25,2.23.29,2.12-1.22,3.58,3,1.05,6.67.6,9.07,3,3.13,3.16,3.16,8.54-.78,11a20.61,20.61,0,0,1-8,2.67c-3.44.54-7,.84-10.32,1.63-4.07.93-7.66,2.87-9.76,6.77-2.25,4.21-2.6,8.45.27,12.57A11.48,11.48,0,0,0,50.17,105.46Z" transform="translate(-0.57 -0.78)"/><line class="cls-1" x1="62.73" y1="36.84" x2="62.73" y2="131.3"/><polygon class="cls-1" points="66.54 36.84 65.19 131.3 60.26 131.3 58.9 36.84 66.54 36.84"/><path class="cls-1" d="M68.62,31.24C63,31.68,57.31,32,51.7,32.67a18.28,18.28,0,0,0-13.87,8.61,30.53,30.53,0,0,0-2.08,5.25V49A9.86,9.86,0,0,1,36,50c.5,3.39,1.57,6.48,4.16,8.89,3.71,3.44,8.2,5.08,13,6a24.59,24.59,0,0,0,6.93.16c0-2,0-3.87,0-5.73,0-.67-.31-.79-.87-.81a41.31,41.31,0,0,1-4.3-.24c-3.73-.55-7.25-1.73-9.37-5.11-2.5-4-2.58-7.7,1.2-10.94a17,17,0,0,1,8-4C60,37.2,65.25,37.69,70.5,38c.23,0,.47,0,.72.07l-.65-7Z" transform="translate(-0.57 -0.78)"/><path class="cls-1" d="M70.81,31.11c-.69.09-1,.18-1,.86.19,1.61.31,3.21.4,4.83.06.89-.23,1.3,1,1.3a5.87,5.87,0,0,1,1.94.9c.7.42,1.38.92,2.14,1.3a4.4,4.4,0,0,0,3.62.18c2.41-1.1,3.4-4.54,3.12-7a10.13,10.13,0,0,0-2-4.64c-1.58-2.08-4.72-2.66-6.42.19A4,4,0,0,1,70.81,31.11Z" transform="translate(-0.57 -0.78)"/><path class="cls-1" d="M59.78,30c.09.69.19,1,.86.95,1.6-.15,3.22-.26,4.83-.34.91-.05,1.32.26,1.32-.95a6.32,6.32,0,0,1,.92-1.91c.44-.72,1-1.38,1.33-2.12A4.51,4.51,0,0,0,69.26,22c-1.07-2.42-4.5-3.45-6.93-3.19a9.83,9.83,0,0,0-4.68,1.9c-2.08,1.54-2.7,4.69.15,6.42A3.89,3.89,0,0,1,59.78,30Z" transform="translate(-0.57 -0.78)"/><path class="cls-1" d="M63.41,126.56l-.11.09h0A.35.35,0,0,0,63.41,126.56Z" transform="translate(-0.57 -0.78)"/><path class="cls-1" d="M71.28,195q-7.71-2-15.85-4.08C57.21,198.44,63.71,200.05,71.28,195Z" transform="translate(-0.57 -0.78)"/><path class="cls-1" d="M66.26,128.14c5.1-2.46,8.65-5.92,9.18-12.12.56-6.5-4.47-11.16-8.63-12.69-.91-.32-1.36,0-1.44.92s0,1.9,0,2.85A1.77,1.77,0,0,0,66.59,109a5.05,5.05,0,0,1,2.73,2.45,8.71,8.71,0,0,1,.3,8.27,15.33,15.33,0,0,1-6.21,6.87.35.35,0,0,1-.11.1h0l-.62.37v0a26.55,26.55,0,0,1-5.87,2.24,14.41,14.41,0,0,0-1.63.58c0,.16,0,.34,0,.5a20.54,20.54,0,0,0,2.18.16,19.25,19.25,0,0,0,4.36-.69l3-1.05C65.3,128.59,65.77,128.38,66.26,128.14Z" transform="translate(-0.57 -0.78)"/><path class="cls-1" d="M71.28,195q-7.71-2-15.85-4.08C57.21,198.44,63.71,200.05,71.28,195Z" transform="translate(-0.57 -0.78)"/><path class="cls-1" d="M71.53,149.82h0l-.07,0Z" transform="translate(-0.57 -0.78)"/><path class="cls-1" d="M125.16,58.83c-.58-12.46-5.48-23.28-12.64-33.18-19-26.37-60-34-88.82-11.95C5.81,27.38-1.87,45.5,1.25,67.93c1.94,14,8.1,26.16,16.55,37.24a40.72,40.72,0,0,1,7.88,16.71,128.92,128.92,0,0,1,2.23,17.19c.63,7.8,3.87,13.9,10.7,17.78a70.63,70.63,0,0,0,12,5.5c7.84,2.7,15.84,4.91,23.8,7.38,1.11.35,2.17.82,3.27,1.29a29.46,29.46,0,0,1-6.18-1.15c-9.06-2.66-18.1-5.55-27.24-8a24.52,24.52,0,0,0-9.18-.67c-4.07.41-6,4.61-3.94,8.19a10.65,10.65,0,0,0,3.48,3.74,32.16,32.16,0,0,0,6.9,3.54c7.32,2.58,14.68,4.92,22,7.38,1.15.36,2.29.75,3.44,1.15a9.33,9.33,0,0,1,2.59,1.05c.08.06-.84.58-.93.59a3.4,3.4,0,0,1-1.38-.27c-5.24-1.67-10.51-3.2-15.73-4.84-3-.91-5.64.8-5.14,3.78a45.62,45.62,0,0,0,2.83,11.25c2.86,6.43,8.47,9.29,15.42,8.29A32.83,32.83,0,0,0,71.47,203c4.5-1.86,5-4.3,1.86-7.61.93,1,5.33-.44,6.43-.84,5.07-1.9,4.9-8.08.72-11a27.64,27.64,0,0,0-6.28-3.4c-6.8-2.42-13.67-4.62-20.54-6.89-3.52-1.19-7.07-2.47-10.59-3.7.08-.12.14-.26.23-.4.67.18,1.38.32,2.06.51,9.59,2.83,19.1,5.82,28.72,8.39a31.46,31.46,0,0,0,9.44.71c2.5-.12,4-2,4.6-4.48a6.6,6.6,0,0,0-3.18-7.47,44.69,44.69,0,0,0-9.38-4.43c-6.63-2.23-13.47-3.82-20.08-6.13a104.37,104.37,0,0,1-13.61-6.11c-4.23-2.27-6.2-6.29-6.49-11.08-.26-3.62-.45-7.22-.89-10.82A58.82,58.82,0,0,0,24,101.05,114,114,0,0,1,13.35,83C7.6,70.52,5.74,57.47,10.21,44.14,16.11,26.54,29,15.93,46.14,10.47c28.62-9.17,59.48,7.2,69.31,36.25a43.48,43.48,0,0,1-.3,29.53c-3.66,10.09-9.83,18.65-17.23,26.31a57.65,57.65,0,0,0-11.32,17.3,119.78,119.78,0,0,0-7.31,23.35,10,10,0,0,1-2,4.26,6.44,6.44,0,0,1-3.54,2,17.1,17.1,0,0,1-2.29.39h0l-.09,0,.07,0a3.82,3.82,0,0,1-2.1-.76c-2.17-1.43-2.86-4.34-3.2-6.74-.1-.78-.18-1.55-.22-2.34-.08-1.08-.09-2.17-.12-3.26-.1-3.07.61-7.59-1.63-10-.28-.3-.83.45-.83.45l-.56,0a3,3,0,0,0-.47.45,7.13,7.13,0,0,0-.92,1.29c-.29.57-.27-.49-.5.21a41.85,41.85,0,0,0-.88,4.18c-.14,1-.31,2-.46,3.08-.08.57-.14,1.15-.21,1.72s-.12,1.24-.17,1.87a24.18,24.18,0,0,0,.33,6.84,13.7,13.7,0,0,0,2.28,5.27,10.3,10.3,0,0,0,1.86,2c.37.25.7.53,1.07.77s.73.44,1.11.66.76.35,1.13.51a12.44,12.44,0,0,0,3.88.81c4.2.07,8.19-.69,11.19-3.67a17.67,17.67,0,0,0,2-2.58,21.83,21.83,0,0,0,2.6-6.42A145.38,145.38,0,0,1,91,128.92a57.39,57.39,0,0,1,13.27-22.39,79.28,79.28,0,0,0,15-21.11A53.42,53.42,0,0,0,125.16,58.83ZM54.06,191.11c5.41,1.4,10.7,2.77,15.86,4.07C62.33,200.24,55.84,198.64,54.06,191.11Z" transform="translate(-0.57 -0.78)"/><path class="cls-2" d="M1105.47,87.45h-6.58V83.92h17.49v3.53h-6.66v19.63h-4.25Z" transform="translate(-0.57 -0.78)"/><path class="cls-2" d="M1110.06,107.43h-4.92V87.8h-6.6V83.56h18.19V87.8h-6.67Zm-4.21-.69h3.52V87.1H1116V84.26h-16.79V87.1h6.62Z" transform="translate(-0.57 -0.78)"/><path class="cls-2" d="M1138.56,97.63c-.15-3-.32-6.59-.28-9.73h-.11c-.75,2.82-1.72,5.95-2.74,8.87l-3.36,10h-3.28l-3.09-9.9c-.9-3-1.72-6.11-2.35-9h-.06c-.11,3-.26,6.7-.41,9.87l-.52,9.31h-3.95L1120,83.92h5.57l3,9.31c.86,2.71,1.55,5.46,2.13,8h.13c.61-2.51,1.38-5.36,2.29-8.08l3.19-9.27h5.5l1.34,23.16H1139Z" transform="translate(-0.57 -0.78)"/><path class="cls-2" d="M1143.5,107.43h-4.83l-.48-10.07c-.11-2.31-.21-4.86-.26-7.29-.67,2.29-1.42,4.64-2.17,6.81l-3.46,10.27h-3.77L1125.38,97c-.67-2.19-1.3-4.5-1.84-6.69-.06,2.31-.19,5-.32,7.46l-.54,9.65H1118l1.58-23.87h6.17l3.08,9.56c.69,2.24,1.32,4.59,1.88,6.88.47-1.88,1.17-4.35,2-6.93l3.27-9.51h6.07Zm-4.16-.69h3.4l-1.29-22.48h-4.92l-3.11,9c-1,3.12-1.83,6.11-2.32,8.06l-.07.26h-.62l-.07-.27c-.6-2.65-1.34-5.42-2.11-8l-3-9.07h-5l-1.49,22.48H1122l.5-9c.17-3.37.32-7.23.41-9.85v-.33h.63l.12.28c.61,2.8,1.45,6,2.34,9l3,9.65h2.76l3.28-9.81c1-2.81,2-6,2.74-8.84l.08-.25h.71v.34c0,3,.11,6.43.26,9.42Z" transform="translate(-0.57 -0.78)"/><path class="cls-2" d="M173.59,137.48h11V71h-11V58.15h39.79c7.39,0,13.09.26,19.2,2.2,18,5.19,29.81,21.26,29.81,43.82,0,21.89-10.89,37.45-28.54,43.3-6.22,2.19-12.56,2.7-20.35,2.7H173.59Zm39.14-.91c5.82,0,10.5-.39,15-2.33,10.51-4.29,17.11-14.91,17.11-30.07,0-15.69-6.86-26.19-17.75-30.33-4.66-2-8.8-2.07-14.39-2.07H201.6v64.8Z" transform="translate(-0.57 -0.78)"/><path class="cls-2" d="M309,82.51c20.24,0,36.42,14.39,36.42,34.6,0,20.37-16.18,34.63-36.29,34.63s-36.42-14.26-36.42-34.63C272.74,96.9,289,82.51,309,82.51Zm.13,55.22c10.76,0,19.57-8.29,19.57-20.62,0-12.17-8.81-20.59-19.57-20.59s-19.7,8.42-19.7,20.59C289.46,129.44,298.39,137.73,309.16,137.73Z" transform="translate(-0.57 -0.78)"/><path class="cls-2" d="M389.78,82.51c11,0,27.09,4.16,27.09,15.82v9.07H402.61V103c0-4.54-6.75-6.48-12.31-6.48-12,0-19.44,8.3-19.44,20.34,0,13.62,9.45,21,20.73,21,9.32,0,17-5.19,20.6-8L418,141.5c-4.55,4.27-14.65,10.24-27.36,10.24-19.33,0-36.41-13.23-36.41-34.48C354.27,97.56,369.43,82.51,389.78,82.51Z" transform="translate(-0.57 -0.78)"/><path class="cls-2" d="M434.89,96.39H424.77V84.07h10.64v-18h15.92v18h15.05V96.39H451.33v27.85c0,11.43,8.58,12.85,13.24,12.85.91,0,1.69-.13,2.2-.13h.76v13.48l-1.43.25a27.74,27.74,0,0,1-3.62.13c-9.32,0-27.59-2.72-27.59-24.87Z" transform="translate(-0.57 -0.78)"/><path class="cls-2" d="M512.25,82.51c20.21,0,36.44,14.39,36.44,34.6,0,20.37-16.23,34.63-36.31,34.63S476,137.48,476,117.11C476,96.9,492.16,82.51,512.25,82.51Zm.13,55.22c10.76,0,19.57-8.29,19.57-20.62,0-12.17-8.81-20.59-19.57-20.59s-19.7,8.42-19.7,20.59C492.68,129.44,501.61,137.73,512.38,137.73Z" transform="translate(-0.57 -0.78)"/><path class="cls-2" d="M559,137.87h9.6V99.24c0-1.94-.91-2.85-2.85-2.85h-7.4V84.07h17.24c5.85,0,8.82,2.73,8.82,8V96a18.3,18.3,0,0,1-.15,3,4.48,4.48,0,0,0-.1,1.15h.25c3.11-9.46,10.77-17,21-17a9.86,9.86,0,0,1,2.09.12,2.37,2.37,0,0,0,.91.14v16.2a3.54,3.54,0,0,1-1.16-.13,19,19,0,0,0-2.85-.13c-13.36,0-19.31,11.67-19.31,24.12v14.38h9.45v12.3H559Z" transform="translate(-0.57 -0.78)"/><path class="cls-2" d="M683,56.6c16.46,0,36,6.35,36,18.15V87.44H703.6V80.71c0-6.36-10-9.59-19.82-9.59-19.57,0-31.76,12.43-31.76,32s12.19,34.08,32.53,34.08c7.4,0,21.14-1.93,21.14-9.58v-9.86H689v-12.7H721.1v27.74c0,14-24.62,18.93-38.21,18.93-28.28,0-48.49-20.49-48.49-48S654.35,56.6,683,56.6Z" transform="translate(-0.57 -0.78)"/><path class="cls-2" d="M766.47,82.51c19,0,29.42,13.88,29.42,31.39a33.74,33.74,0,0,1-.13,3.48l-.26,2.08H749.75c1,12,9.83,18.41,19.82,18.41a27.75,27.75,0,0,0,13.62-3.5,33.28,33.28,0,0,0,5.58-3.51l6.34,11.67a36.53,36.53,0,0,1-7.14,4.54,41.62,41.62,0,0,1-19.56,4.67c-21.92,0-35.51-16-35.51-34.63C732.9,96.78,746.64,82.51,766.47,82.51Zm12.44,27.24c-.38-9.21-5.71-14.52-12.83-14.52-8.44,0-14.39,5.7-15.94,14.52Z" transform="translate(-0.57 -0.78)"/><path class="cls-2" d="M806.64,137.87h9.6V99.24c0-1.94-.91-2.85-2.85-2.85H806V84.07h17.34c5.85,0,8.57,2.73,8.57,7.39v3a9.21,9.21,0,0,1-.13,2,2.54,2.54,0,0,0-.13.91h.26c.65-2.07,7.9-14.79,24.38-14.79,14.13,0,22.15,7.53,22.15,25.15v30.21H888v12.3H862.12V111c0-8.17-2.2-13.48-10.5-13.48-11.91,0-18.92,11.4-18.92,22.94v17.37h9.47v12.3H806.64Z" transform="translate(-0.57 -0.78)"/><path class="cls-2" d="M897,137.87h9.6V96.39H896.34V84.07H923v53.8h9.47v12.3H897Zm9.45-79.72H923V72.8H906.43Z" transform="translate(-0.57 -0.78)"/><path class="cls-2" d="M948.69,96.39H938.47V84.07h26.69v39.66c0,7.92,2.07,13.36,10.37,13.36,11.41,0,18.27-11.66,18.27-23.6V96.39H983.69V84.07h26.57v51.08c0,1.94.91,2.84,2.85,2.84h6.34v12.18h-16.3c-5.85,0-8.57-2.7-8.57-7.38v-2.45c0-.92.13-1.71.13-2.22v-.91h-.26c-.78,2.21-7.66,14.53-24.12,14.53-13.09,0-21.64-7.12-21.64-25.15Z" transform="translate(-0.57 -0.78)"/><path class="cls-2" d="M1027.89,128.15h14V132c0,4.54,6.08,6.87,13,6.87,6.61,0,11.27-2.2,11.27-6.74,0-5.44-6.22-7.13-15-10.24-9.58-3.5-20.86-7.77-20.86-20.48,0-14,14.13-18.93,26.06-18.93,9.58,0,23.84,3.77,23.84,13.75v8.43H1066v-3.76c0-3.5-3.89-5.45-9.71-5.45-5.2,0-9.62,1.82-9.62,6,0,5.45,6.49,7.78,13.87,9.87,10.14,3.09,22,7.38,22,20.34,0,13.47-12.71,20.09-27.88,20.09-11.9,0-26.81-5.19-26.81-16Z" transform="translate(-0.57 -0.78)"/></svg>