<svg xmlns="http://www.w3.org/2000/svg" width="36" height="27.431" viewBox="0 0 36 27.431">
  <g id="responsive-websites" transform="translate(0 0)">
    <path id="Path_987" data-name="Path 987" d="M35.3,188.512a.7.7,0,0,0-.7.7v12.066H1.406v-1.407a.7.7,0,0,0-1.406,0v2.11a.7.7,0,0,0,.7.7H35.3a.7.7,0,0,0,.7-.7V189.215a.7.7,0,0,0-.7-.7Zm0,0" transform="translate(0 -175.257)" fill="#0074cf" fill-rule="evenodd"/>
    <path id="Path_988" data-name="Path 988" d="M35.3,0H.7A.7.7,0,0,0,0,.7V18.993a.7.7,0,1,0,1.406,0V6.927H34.594V8.333a.7.7,0,0,0,1.406,0V.7a.7.7,0,0,0-.7-.7ZM1.406,5.52V1.406H34.594V5.52Zm0,0" fill="#0074cf" fill-rule="evenodd"/>
    <path id="Path_989" data-name="Path 989" d="M49.3,322.926h24.38a.7.7,0,1,0,0-1.406H49.3a.7.7,0,1,0,0,1.406Zm0,0" transform="translate(-45.184 -298.913)" fill="#0074cf" fill-rule="evenodd"/>
    <path id="Path_990" data-name="Path 990" d="M237.73,128.519H252.4a.7.7,0,1,0,0-1.406H237.73a.7.7,0,0,0,0,1.406Zm0,0" transform="translate(-220.361 -118.175)" fill="#0074cf" fill-rule="evenodd"/>
    <path id="Path_991" data-name="Path 991" d="M237.73,193.32H252.4a.7.7,0,0,0,0-1.406H237.73a.7.7,0,0,0,0,1.406Zm0,0" transform="translate(-220.361 -178.42)" fill="#0074cf" fill-rule="evenodd"/>
    <path id="Path_992" data-name="Path 992" d="M344.431,39.254h-2.391a.7.7,0,1,0,0,1.406h2.391a.7.7,0,1,0,0-1.406Zm0,0" transform="translate(-317.336 -36.494)" fill="#0074cf" fill-rule="evenodd"/>
    <path id="Path_993" data-name="Path 993" d="M237.73,258.125H252.4a.7.7,0,1,0,0-1.406H237.73a.7.7,0,0,0,0,1.406Zm0,0" transform="translate(-220.361 -238.668)" fill="#0074cf" fill-rule="evenodd"/>
    <path id="Path_994" data-name="Path 994" d="M414.724,39.254h-2.391a.7.7,0,1,0,0,1.406h2.391a.7.7,0,1,0,0-1.406Zm0,0" transform="translate(-382.687 -36.494)" fill="#0074cf" fill-rule="evenodd"/>
    <path id="Path_995" data-name="Path 995" d="M49.3,137.633h9.113a.7.7,0,0,0,.7-.7v-9.113a.7.7,0,0,0-.7-.7H49.3a.7.7,0,0,0-.7.7v9.113A.7.7,0,0,0,49.3,137.633Zm.7-9.113h7.707v7.707H50.008Zm0,0" transform="translate(-45.184 -118.176)" fill="#0074cf" fill-rule="evenodd"/>
    <path id="Path_996" data-name="Path 996" d="M.7,301.527a.7.7,0,1,0-.7-.7A.7.7,0,0,0,.7,301.527Zm0,0" transform="translate(0 -279.019)" fill="#0074cf" fill-rule="evenodd"/>
    <path id="Path_997" data-name="Path 997" d="M492.7,148.512a.7.7,0,1,0,.7.7A.7.7,0,0,0,492.7,148.512Zm0,0" transform="translate(-457.406 -138.07)" fill="#0074cf" fill-rule="evenodd"/>
  </g>
</svg>
