<svg xmlns="http://www.w3.org/2000/svg" width="107.992" height="102.93" viewBox="0 0 107.992 102.93"><g transform="translate(0 0)"><g transform="translate(0 0)"><g transform="translate(0)"><path d="M42.016,242a1.687,1.687,0,0,0-.844-.793l-11.2-4.848-.9-2.8c2.919-2.359,4.682-6.273,4.682-11.058V209a1.687,1.687,0,0,0-.494-1.193,16.422,16.422,0,0,0-11.317-3.869,16.421,16.421,0,0,0-11.317,3.869A1.687,1.687,0,0,0,10.124,209v13.5c0,4.782,1.76,8.694,4.676,11.054l-.9,2.8L2.708,241.2a1.687,1.687,0,0,0-.844.793L.177,245.372a1.687,1.687,0,0,0-.177.754v20.248H3.375v-19.85l1.233-2.469,10.159-4.4,5.482,5.482v6.051h3.375v-6.051l5.481-5.481,10.159,4.4,1.233,2.469v19.85h3.375V246.127a1.686,1.686,0,0,0-.169-.754Zm-20.08-34.681a14.019,14.019,0,0,1,8.437,2.472V217.2c-.844-.222-1.687-.644-1.687-1.444A1.687,1.687,0,0,0,27,214.066H16.874a1.687,1.687,0,0,0-1.687,1.687c0,.8-.844,1.222-1.687,1.444v-7.407A14.021,14.021,0,0,1,21.936,207.317ZM13.5,222.5v-1.844a6,6,0,0,0,4.755-3.218h7.364a6,6,0,0,0,4.755,3.218V222.5c0,4.671-2.21,10.124-8.437,10.124S13.5,227.174,13.5,222.5ZM21.936,236a11.722,11.722,0,0,0,4.141-.731l.644,2-4.786,4.786-4.788-4.787.642-2A11.721,11.721,0,0,0,21.936,236Z" transform="translate(0 -163.445)" fill="#383838"/><rect width="3.375" height="8.437" transform="translate(8.437 94.493)" fill="#383838"/><rect width="3.375" height="8.437" transform="translate(32.06 94.493)" fill="#383838"/><path d="M346.015,242a1.687,1.687,0,0,0-.844-.793l-11.2-4.848-.9-2.8c2.919-2.359,4.682-6.273,4.682-11.058V209a1.687,1.687,0,0,0-.494-1.193,18.486,18.486,0,0,0-22.634,0,1.687,1.687,0,0,0-.494,1.193v13.5c0,4.78,1.759,8.69,4.672,11.05l-.9,2.8L306.7,241.2a1.687,1.687,0,0,0-.844.793l-1.687,3.375a1.686,1.686,0,0,0-.169.754v20.248h3.375v-19.85l1.232-2.469,10.16-4.4,5.482,5.482v6.051h3.375v-6.051l5.481-5.481,10.159,4.4,1.233,2.469v19.85h3.375V246.127a1.686,1.686,0,0,0-.169-.754Zm-20.08-34.681a14.019,14.019,0,0,1,8.437,2.472V217.2c-.844-.222-1.687-.644-1.687-1.444A1.687,1.687,0,0,0,331,214.066H320.873a1.687,1.687,0,0,0-1.687,1.687c0,.8-.844,1.222-1.687,1.444v-7.407A14.021,14.021,0,0,1,325.935,207.317ZM317.5,222.5v-1.844a6,6,0,0,0,4.755-3.218h7.364a6,6,0,0,0,4.755,3.218V222.5c0,4.671-2.21,10.124-8.437,10.124S317.5,227.174,317.5,222.5Zm8.437,13.5a11.722,11.722,0,0,0,4.141-.731l.644,2-4.786,4.786-4.788-4.788.64-2A11.725,11.725,0,0,0,325.935,236Z" transform="translate(-239.879 -163.445)" fill="#383838"/><rect width="3.375" height="8.437" transform="translate(72.557 94.493)" fill="#383838"/><rect width="3.375" height="8.437" transform="translate(96.18 94.493)" fill="#383838"/><path d="M216.987,239.655l3.391,1.472,1.343-3.1-3.864-1.674-.9-2.8c2.915-2.36,4.675-6.272,4.675-11.053V209a1.687,1.687,0,0,0-.494-1.193,18.486,18.486,0,0,0-22.634,0,1.687,1.687,0,0,0-.494,1.193v13.5c0,4.779,1.758,8.689,4.671,11.049l-.906,2.809-4.3,1.856,1.35,3.1,3.826-1.658,5.481,5.481v6.051H211.5v-6.051Zm-7.17-32.338a14.019,14.019,0,0,1,8.437,2.472V217.2c-.844-.222-1.687-.644-1.687-1.444a1.687,1.687,0,0,0-1.687-1.687H204.755a1.687,1.687,0,0,0-1.687,1.687c0,.8-.844,1.222-1.687,1.444v-7.407A14.021,14.021,0,0,1,209.817,207.317ZM201.38,222.5v-1.844a6,6,0,0,0,4.755-3.218H213.5a6,6,0,0,0,4.755,3.218V222.5c0,4.671-2.21,10.124-8.437,10.124S201.38,227.174,201.38,222.5Zm8.437,13.5a11.729,11.729,0,0,0,4.149-.734l.643,1.993-4.792,4.792-4.788-4.788.639-2A11.72,11.72,0,0,0,209.817,236Z" transform="translate(-155.821 -163.445)" fill="#383838"/><path d="M3.375,32.249H7.931l6.162,6.157a1.687,1.687,0,0,0,2.386,0l6.156-6.157H27V28.874H21.936a1.687,1.687,0,0,0-1.193.494l-5.457,5.459-5.46-5.459a1.687,1.687,0,0,0-1.193-.494H3.375v-13.5H47.247V18.75h3.375V15.375A3.375,3.375,0,0,0,47.247,12H3.375A3.375,3.375,0,0,0,0,15.375v13.5A3.375,3.375,0,0,0,3.375,32.249Z" transform="translate(0 -12)" fill="#383838"/><path d="M167.623,60H147.375A3.375,3.375,0,0,0,144,63.375v13.5a3.375,3.375,0,0,0,3.375,3.375h12.8L166.43,86.5a1.686,1.686,0,0,0,2.386,0L175,80.318l16.244-.069a3.375,3.375,0,0,0,3.375-3.375l-20.333.073a1.687,1.687,0,0,0-1.181.494l-5.484,5.484-5.556-5.556a1.687,1.687,0,0,0-1.193-.494h-13.5v-13.5h20.249Z" transform="translate(-113.627 -49.876)" fill="#383838"/><path d="M319.247,28H275.375A3.375,3.375,0,0,0,272,31.375v13.5a3.375,3.375,0,0,0,3.375,3.375h24.612l6.255,6.255a1.686,1.686,0,0,0,2.386,0l6.255-6.255h4.364a3.375,3.375,0,0,0,3.375-3.375v-13.5A3.375,3.375,0,0,0,319.247,28Zm0,16.874h-5.062a1.687,1.687,0,0,0-1.193.494l-5.557,5.557-5.557-5.557a1.687,1.687,0,0,0-1.193-.494H275.375v-13.5h43.872Z" transform="translate(-214.629 -24.625)" fill="#383838"/><rect width="26.998" height="3.375" transform="translate(65.808 11.812)" fill="#0074cf"/><rect width="6.75" height="3.375" transform="translate(45.559 18.561)" fill="#0074cf"/><rect width="3.375" height="3.375" transform="translate(96.18 11.812)" fill="#0074cf"/><rect width="3.375" height="3.375" transform="translate(38.81 18.561)" fill="#0074cf"/><rect width="3.375" height="3.375" transform="translate(21.936 8.437)" fill="#0074cf"/><rect width="10.124" height="3.375" transform="translate(8.437 8.437)" fill="#0074cf"/></g></g></g></svg>