<svg xmlns="http://www.w3.org/2000/svg" width="68.7" height="70.477" viewBox="0 0 68.7 70.477"><g transform="translate(-6.455)"><g transform="translate(6.455)"><g transform="translate(0)"><circle cx="1.507" cy="1.507" r="1.507" transform="translate(12.069 44.528)" fill="#0878cf"/><circle cx="1.507" cy="1.507" r="1.507" transform="translate(0 33.395)" fill="#0878cf"/><circle cx="1.507" cy="1.507" r="1.507" transform="translate(1.699 54.419)" fill="#0878cf"/><circle cx="1.507" cy="1.507" r="1.507" transform="translate(12.823 61.689)" fill="#0878cf"/><circle cx="1.507" cy="1.507" r="1.507" transform="translate(54.804 63.195)" fill="#0878cf"/><circle cx="1.507" cy="1.507" r="1.507" transform="translate(61.975 50.733)" fill="#0878cf"/><circle cx="1.507" cy="1.507" r="1.507" transform="translate(44.831 12.461)" fill="#0878cf"/><circle cx="1.507" cy="1.507" r="1.507" transform="translate(32.078 1.507)" fill="#0878cf"/><circle cx="1.507" cy="1.507" r="1.507" transform="translate(57.818 5.059)" fill="#0878cf"/><path d="M35.983,30.405,43.267,35.7a3.616,3.616,0,0,0,4.315,0,3.616,3.616,0,0,0,1.334-4.1l-2.782-8.562,7.283-5.292A3.671,3.671,0,0,0,51.259,11.1h-9L39.475,2.536a3.671,3.671,0,0,0-6.982,0L29.71,11.1h-9a3.671,3.671,0,0,0-2.158,6.641l7.283,5.292-2.782,8.562A3.671,3.671,0,0,0,28.7,35.7Zm-9.827,2.854a.619.619,0,0,1-.239-.735l3.12-9.6a1.507,1.507,0,0,0-.547-1.685L20.321,15.3a.657.657,0,0,1,.386-1.188H30.8a1.507,1.507,0,0,0,1.433-1.041l3.12-9.6a.657.657,0,0,1,1.25,0l3.12,9.6a1.507,1.507,0,0,0,1.433,1.041h10.1a.657.657,0,0,1,.386,1.188l-8.169,5.935a1.507,1.507,0,0,0-.547,1.685l3.12,9.6a.657.657,0,0,1-1.011.735l-8.169-5.935a1.507,1.507,0,0,0-1.772,0l-8.169,5.935A.619.619,0,0,1,26.156,33.259Z" transform="translate(-15.574 0)" fill="#4f4f4f"/><path d="M181.388,309.277H174.6l-2.1-6.459a3.2,3.2,0,0,0-6.081,0l-2.1,6.459h-6.791a3.2,3.2,0,0,0-1.879,5.783l5.494,3.992-2.1,6.459a3.149,3.149,0,0,0,1.161,3.574,3.15,3.15,0,0,0,3.758,0l5.494-3.992,5.494,3.992a3.2,3.2,0,0,0,4.92-3.574l-2.1-6.459,5.494-3.992a3.2,3.2,0,0,0-1.879-5.783Zm.107,3.345-6.38,4.635a1.507,1.507,0,0,0-.547,1.685l2.437,7.5a.183.183,0,0,1-.282.2l-6.38-4.635a1.507,1.507,0,0,0-1.772,0l-6.38,4.635a.183.183,0,0,1-.282-.2l2.437-7.5a1.507,1.507,0,0,0-.547-1.685l-6.38-4.635a.183.183,0,0,1,.107-.331h7.886a1.507,1.507,0,0,0,1.433-1.041l2.437-7.5a.183.183,0,0,1,.348,0l2.437,7.5a1.507,1.507,0,0,0,1.433,1.041h7.886a.183.183,0,0,1,.107.331Z" transform="translate(-133.969 -259.23)" fill="#4f4f4f"/><path d="M346.4,133.682a2.85,2.85,0,0,0-2.752-2h-5.376l-1.661-5.114a2.894,2.894,0,0,0-5.5,0l-1.661,5.114h-5.377a2.894,2.894,0,0,0-1.7,5.235l4.35,3.16-1.661,5.114a2.851,2.851,0,0,0,1.051,3.235,2.851,2.851,0,0,0,3.4,0l4.35-3.16,4.35,3.16a2.894,2.894,0,0,0,4.453-3.235L341,140.077l4.35-3.16A2.852,2.852,0,0,0,346.4,133.682Zm-8.058,4.6a1.507,1.507,0,0,0-.547,1.685l1.885,5.8-4.936-3.586a1.507,1.507,0,0,0-1.772,0l-4.936,3.586,1.885-5.8a1.507,1.507,0,0,0-.547-1.685L324.44,134.7h6.1a1.507,1.507,0,0,0,1.433-1.041l1.886-5.8,1.885,5.8a1.507,1.507,0,0,0,1.433,1.041h6.1Z" transform="translate(-277.85 -107.422)" fill="#4f4f4f"/></g></g></g></svg>