<svg xmlns="http://www.w3.org/2000/svg" width="36.75" height="36.75" viewBox="0 0 36.75 36.75"><path d="M220.742,130.371a2.371,2.371,0,1,0-2.371,2.371A2.373,2.373,0,0,0,220.742,130.371Zm-3.556,0a1.185,1.185,0,1,1,1.185,1.185A1.187,1.187,0,0,1,217.185,130.371Zm0,0" transform="translate(-199.996 -118.516)" fill="#d4f1ff"/><path d="M208,216.3v3.556h5.927V216.3h-1.186V208H208v3.556h1.185V216.3Zm1.185-5.927v-1.185h2.371v8.3h1.185v1.185h-3.556v-1.185h1.185v-7.113Zm0,0" transform="translate(-192.589 -192.589)" fill="#d4f1ff"/><path d="M18.375,0A18.375,18.375,0,1,0,36.75,18.375,18.4,18.4,0,0,0,18.375,0Zm0,35.565a17.19,17.19,0,1,1,17.19-17.19A17.209,17.209,0,0,1,18.375,35.565Zm0,0" fill="#d4f1ff"/><path d="M140.5,48a14.715,14.715,0,0,0-8.6,2.756l.689.965A13.629,13.629,0,0,1,151.6,70.732l.965.689A14.815,14.815,0,0,0,140.5,48Zm0,0" transform="translate(-122.129 -44.443)" fill="#d4f1ff"/><path d="M62.819,154.137a13.629,13.629,0,0,1-11.1-21.546l-.964-.689a14.815,14.815,0,0,0,20.664,20.665l-.689-.965a13.539,13.539,0,0,1-7.913,2.535Zm0,0" transform="translate(-44.444 -122.129)" fill="#d4f1ff"/></svg>