<svg xmlns="http://www.w3.org/2000/svg" width="28.307" height="28.307" viewBox="0 0 28.307 28.307"><g transform="translate(-193.001 -3032.662)"><circle cx="13" cy="13" r="13" transform="translate(194 3034)" fill="rgba(255,0,0,0)"/><path d="M10123.7,24370.969a14.155,14.155,0,1,1,10.008-4.146A14.055,14.055,0,0,1,10123.7,24370.969Zm-.153-26.967a13,13,0,1,0,13,13A13.015,13.015,0,0,0,10123.542,24344Zm4.374,21.365h-8.441a4.3,4.3,0,0,1-4.293-4.295v-8.439a4.3,4.3,0,0,1,4.293-4.295h8.441a4.3,4.3,0,0,1,4.293,4.295v8.439A4.3,4.3,0,0,1,10127.916,24365.367Zm-8.441-15.176a2.443,2.443,0,0,0-2.439,2.441v8.439a2.443,2.443,0,0,0,2.439,2.441h8.441a2.443,2.443,0,0,0,2.44-2.441v-8.439a2.443,2.443,0,0,0-2.44-2.441Zm4.221,11.047a4.386,4.386,0,1,1,4.386-4.385A4.39,4.39,0,0,1,10123.7,24361.238Zm0-6.918a2.532,2.532,0,1,0,2.532,2.533A2.536,2.536,0,0,0,10123.7,24354.32Zm4.526-.947a1.037,1.037,0,1,1,1.039-1.035A1.039,1.039,0,0,1,10128.222,24353.373Z" transform="translate(-9916.541 -21310)" fill="#fff"/></g></svg>