<svg xmlns="http://www.w3.org/2000/svg" width="13.322" height="13.32" viewBox="0 0 13.322 13.32"><g transform="translate(-200.493 -3040.194)"><path d="M34.638,23.88H26.2a2.445,2.445,0,0,0-2.442,2.442v8.437A2.445,2.445,0,0,0,26.2,37.2h8.437a2.445,2.445,0,0,0,2.443-2.443V26.322A2.445,2.445,0,0,0,34.638,23.88ZM30.42,34.927a4.386,4.386,0,1,1,4.386-4.386A4.391,4.391,0,0,1,30.42,34.927Zm4.527-7.864a1.038,1.038,0,1,1,1.038-1.038A1.039,1.039,0,0,1,34.947,27.062Z" transform="translate(176.734 3016.313)" fill="#afafaf"/><path d="M39.382,36.971A2.532,2.532,0,1,0,41.914,39.5,2.536,2.536,0,0,0,39.382,36.971Z" transform="translate(167.772 3007.35)" fill="#afafaf"/></g></svg>