<svg xmlns="http://www.w3.org/2000/svg" width="91.229" height="104.643" viewBox="0 0 91.229 104.643"><g transform="translate(0 0)"><g transform="translate(74.042 60.004)"><path d="M410.236,321.963l-15.142-28.371Z" transform="translate(-395.094 -293.592)" fill="#383838"/></g><path d="M0,114.069Z" transform="translate(18.867 -76.426)" fill="#383838"/><path d="M123.8,87.412,108.949,59.582a37.643,37.643,0,1,0-60.706.6L33.074,87.38A2.044,2.044,0,0,0,35.1,90.4l16.13-1.943L57.616,103.4a2.044,2.044,0,0,0,1.794,1.239l.085,0a2.044,2.044,0,0,0,1.806-1.087l15-28.326q1.031.056,2.076.058c.486,0,.969-.012,1.451-.031l15.749,28.335a2.043,2.043,0,0,0,1.786,1.051l.106,0a2.044,2.044,0,0,0,1.774-1.238l6.382-14.941,16.13,1.943a2.043,2.043,0,0,0,2.047-2.992ZM59.693,97.858l-5.3-12.413a2.042,2.042,0,0,0-2.124-1.226L38.6,85.866l12.463-22.35A37.609,37.609,0,0,0,71.939,74.734ZM44.822,37.643A33.556,33.556,0,1,1,78.378,71.2,33.594,33.594,0,0,1,44.822,37.643Zm59.771,46.576a2.045,2.045,0,0,0-2.124,1.226L97.124,97.959,84.266,74.825a37.614,37.614,0,0,0,21.887-11.8l12.2,22.852Z" transform="translate(-32.815)" fill="#383838"/><path d="M340.215,85.926a2.044,2.044,0,0,0,1.466-3.467l-.041-.042a2.044,2.044,0,1,0-1.425,3.509Z" transform="translate(-275.753 -65.098)" fill="#383838"/><path d="M156.767,267.062a2.044,2.044,0,0,0-2.923,2.857l.042.043a2.044,2.044,0,1,0,2.89-2.891Z" transform="translate(-128.651 -211.996)" fill="#383838"/><path d="M119.2,72.29a24.684,24.684,0,0,1,24.656-24.656,2.044,2.044,0,0,0,0-4.088,28.756,28.756,0,0,0-26.174,40.638,2.044,2.044,0,0,0,3.72-1.693A24.459,24.459,0,0,1,119.2,72.29Z" transform="translate(-98.29 -34.646)" fill="#383838"/><path d="M273.293,114.973a2.044,2.044,0,1,0-3.624,1.89,24.374,24.374,0,0,1,2.778,11.381A24.684,24.684,0,0,1,247.791,152.9a2.044,2.044,0,0,0,0,4.088,28.753,28.753,0,0,0,25.5-42.014Z" transform="translate(-202.228 -90.6)" fill="#383838"/><path d="M227.221,144.892a2.044,2.044,0,1,0,0-4.088H222.9V119.073a2.044,2.044,0,0,0-3.489-1.445l-7.123,7.123a2.044,2.044,0,0,0,2.891,2.891l3.634-3.634v16.8h-4.325a2.044,2.044,0,1,0,0,4.088h12.738Z" transform="translate(-175.128 -93.111)" fill="#0074cf"/></g></svg>