<svg xmlns="http://www.w3.org/2000/svg" width="103.513" height="90.574" viewBox="0 0 103.513 90.574"><g transform="translate(0 0.001)"><g transform="translate(62.539 49.6)"><g transform="translate(0 0)"><path d="M328.757,288.116H315.79a2.157,2.157,0,0,1-2.144-2.157V283.8a2.157,2.157,0,0,1,2.157-2.157h12.939A2.157,2.157,0,0,1,330.9,283.8h4.313a6.47,6.47,0,0,0-6.47-6.47H315.8a6.47,6.47,0,0,0-6.47,6.47v2.157a6.47,6.47,0,0,0,6.457,6.47h12.967a2.157,2.157,0,0,1,2.141,2.157v2.157a2.157,2.157,0,0,1-2.156,2.157H315.8a2.157,2.157,0,0,1-2.157-2.157h-4.313a6.47,6.47,0,0,0,6.47,6.47h12.939a6.47,6.47,0,0,0,6.47-6.47v-2.157A6.469,6.469,0,0,0,328.757,288.116Z" transform="translate(-309.333 -277.333)" fill="#0074cf"/></g></g><g transform="translate(73.322 45.287)"><rect width="4.313" height="8.626" fill="#0074cf"/></g><g transform="translate(73.322 73.322)"><g transform="translate(0 0)"><rect width="4.313" height="6.47" fill="#0074cf"/></g></g><g transform="translate(0 0)"><g transform="translate(0 0)"><path d="M92.731,32H10.783A10.8,10.8,0,0,0,0,42.783v69.009a10.8,10.8,0,0,0,10.783,10.783H56.07v-4.313H10.783a6.47,6.47,0,0,1-6.47-6.47V42.783a6.47,6.47,0,0,1,6.47-6.47H92.73a6.47,6.47,0,0,1,6.47,6.47V72.974h4.313V42.783A10.8,10.8,0,0,0,92.731,32Z" transform="translate(0 -32)" fill="#383838"/></g></g><g transform="translate(2.157 8.626)"><g transform="translate(0 0)"><rect width="92.731" height="4.313" fill="#383838"/></g></g><g transform="translate(47.443 34.504)"><g transform="translate(0 0)"><path d="M262.7,202.667A28.035,28.035,0,1,0,290.736,230.7,28.035,28.035,0,0,0,262.7,202.667Zm0,51.757A23.722,23.722,0,1,1,286.423,230.7,23.722,23.722,0,0,1,262.7,254.424Z" transform="translate(-234.666 -202.667)" fill="#383838"/></g></g><g transform="translate(8.626 66.852)"><path d="M49.137,362.667a6.47,6.47,0,1,0,6.47,6.47A6.47,6.47,0,0,0,49.137,362.667Zm0,8.626a2.156,2.156,0,1,1,2.157-2.156A2.157,2.157,0,0,1,49.137,371.293Z" transform="translate(-42.667 -362.667)" fill="#0074cf"/></g><g transform="translate(47.444 19.409)"><g transform="translate(0 0)"><path d="M241.137,128a6.47,6.47,0,1,0,6.47,6.47A6.47,6.47,0,0,0,241.137,128Zm0,8.626a2.157,2.157,0,1,1,2.157-2.157A2.157,2.157,0,0,1,241.137,136.626Z" transform="translate(-234.667 -128)" fill="#0074cf"/></g></g><g transform="translate(15.27 29.227)"><g transform="translate(0 0)"><path d="M110.087,176.565,100.78,195.18,92.11,184.775a2.157,2.157,0,0,0-3.64.531L75.531,215.5l3.964,1.7,11.552-26.957,8.529,10.235a2.128,2.128,0,0,0,1.906.761,2.157,2.157,0,0,0,1.682-1.177l10.783-21.565Z" transform="translate(-75.531 -176.565)" fill="#0074cf"/></g></g><g transform="translate(10.783 17.252)"><g transform="translate(0 0)"><rect width="19.409" height="4.313" fill="#383838"/></g></g><g transform="translate(34.504 17.252)"><g transform="translate(0 0)"><rect width="4.313" height="4.313" fill="#383838"/></g></g><g transform="translate(10.783 25.878)"><rect width="15.096" height="4.313" fill="#383838"/></g><g transform="translate(10.783 34.504)"><g transform="translate(0 0)"><rect width="4.313" height="4.313" fill="#383838"/></g></g><g transform="translate(81.948 17.252)"><g transform="translate(0 0)"><rect width="12.939" height="4.313" fill="#383838"/></g></g><g transform="translate(73.322 17.252)"><g transform="translate(0 0)"><rect width="4.313" height="4.313" fill="#383838"/></g></g><g transform="translate(81.948 25.878)"><rect width="12.939" height="4.313" fill="#383838"/></g></g></svg>